Coordinates
version=1
nRows=7
nColumns=40
inDegrees=yes

Units are S.I. units (second, meters, Newtons, ...)
Angles are in degrees.

endheader
time	pelvis_tilt	pelvis_list	pelvis_rotation	pelvis_tx	pelvis_ty	pelvis_tz	hip_flexion_r	hip_adduction_r	hip_rotation_r	knee_angle_r	knee_angle_r_beta	ankle_angle_r	subtalar_angle_r	mtp_angle_r	hip_flexion_l	hip_adduction_l	hip_rotation_l	knee_angle_l	knee_angle_l_beta	ankle_angle_l	subtalar_angle_l	mtp_angle_l	lumbar_extension	lumbar_bending	lumbar_rotation	arm_flex_r	arm_add_r	arm_rot_r	elbow_flex_r	pro_sup_r	wrist_flex_r	wrist_dev_r	arm_flex_l	arm_add_l	arm_rot_l	elbow_flex_l	pro_sup_l	wrist_flex_l	wrist_dev_l
      2.14000000	     -0.56513516	      8.60506933	    -84.27269647	      0.58900289	      0.98357894	     -0.19333446	     11.41212100	     -5.08963898	    -12.17888940	      9.87119800	      0.17228491	      3.47813446	      0.00000000	      0.00000000	     16.46949637	     -5.30872420	     -3.29738943	     15.19557313	      0.26521278	      4.26175432	      0.00000000	      0.00000000	      1.32891334	     -1.69338421	     -5.53788470	    -47.19741967	    -71.67002254	    -13.56632723	    108.71266532	     46.39102822	      0.00000000	      0.00000000	    -18.59162461	    -83.58104051	      7.61602162	    109.30062479	     46.05697869	      0.00000000	      0.00000000
      2.15000000	     -0.59383765	      8.61754498	    -84.20774630	      0.58930682	      0.98357589	     -0.19370022	     11.51417210	     -5.09162475	    -12.23980753	      9.98341131	      0.17424340	      3.38686644	      0.00000000	      0.00000000	     16.73170766	     -5.28671771	     -3.00133954	     15.61677571	      0.27256415	      4.01171703	      0.00000000	      0.00000000	      1.33108102	     -1.61976711	     -5.66368688	    -46.82226918	    -71.48397337	    -13.57615143	    108.42947943	     46.37388973	      0.00000000	      0.00000000	    -18.39660633	    -83.33219600	      7.47929165	    109.03424491	     46.04444976	      0.00000000	      0.00000000
      2.16000000	     -0.65075119	      8.67767709	    -84.06914612	      0.58941487	      0.98342814	     -0.19401228	     11.62620051	     -5.07990350	    -12.40265931	     10.07996609	      0.17592860	      3.34384033	      0.00000000	      0.00000000	     17.03374213	     -5.33877688	     -2.71314671	     15.97247185	      0.27877222	      3.83296711	      0.00000000	      0.00000000	      1.36467064	     -1.53343654	     -5.83657603	    -46.48312366	    -71.28688188	    -13.54846443	    108.20343186	     46.35752256	      0.00000000	      0.00000000	    -18.22842479	    -83.07496427	      7.37378689	    108.83397940	     46.03344428	      0.00000000	      0.00000000
      2.17000000	     -0.64570080	      8.50272988	    -84.44551549	      0.58877718	      0.98366079	     -0.19157843	     11.18547585	     -4.89892704	    -11.84559690	      9.83699919	      0.17168802	      3.47164174	      0.00000000	      0.00000000	     16.16555470	     -5.48751886	     -3.54743890	     15.15457213	      0.26449718	      4.47217888	      0.00000000	      0.00000000	      1.54334399	     -1.50998366	     -5.48068397	    -47.04059209	    -71.42892590	    -13.16936957	    108.42152863	     46.37626147	      0.00000000	      0.00000000	    -18.67228484	    -83.12235954	      7.63692837	    109.37491375	     46.06103410	      0.00000000	      0.00000000
      2.18000000	     -0.69635401	      8.56781064	    -84.28918464	      0.58913930	      0.98354898	     -0.19261347	     11.40309067	     -4.95082480	    -12.17113852	      9.97106992	      0.17402800	      3.42210910	      0.00000000	      0.00000000	     16.60332732	     -5.47088678	     -3.07244387	     15.66889556	      0.27347382	      4.16183255	      0.00000000	      0.00000000	      1.50181281	     -1.40737320	     -5.63950482	    -46.50255918	    -71.22116412	    -13.20622380	    108.12436935	     46.35640916	      0.00000000	      0.00000000	    -18.38948624	    -82.82034894	      7.43074479	    109.03387776	     46.04429672	      0.00000000	      0.00000000
      2.19000000	      0.01293880	      7.02938188	    -85.30949942	      0.58773772	      0.98651664	     -0.19105114	      9.46466963	     -5.25693896	    -10.41546744	      9.38809855	      0.16385323	      3.28889661	      0.00000000	      0.00000000	     13.87728789	     -5.09345843	     -4.68385222	     14.22113854	      0.24820569	      3.62913557	      0.00000000	      0.00000000	     -0.27367236	     -1.95001968	     -4.65730840	    -47.63144822	    -70.99631999	    -14.04407112	    108.35996370	     46.54646646	      0.00000000	      0.00000000	    -18.87555012	    -82.96042281	      6.90421087	    109.32761336	     46.16289651	      0.00000000	      0.00000000
      2.20000000	     -0.03508993	      7.15658765	    -85.05366391	      0.58820032	      0.98632077	     -0.19138400	      9.60927384	     -5.28727820	    -10.79053657	      9.47036825	      0.16528911	      3.25557498	      0.00000000	      0.00000000	     14.27668879	     -5.05724866	     -4.22722036	     14.62380451	      0.25523354	      3.45747182	      0.00000000	      0.00000000	     -0.11543867	     -1.88108382	     -4.92882226	    -47.22097462	    -70.71739801	    -14.04234943	    108.13542461	     46.52859199	      0.00000000	      0.00000000	    -18.65950059	    -82.66361938	      6.76399687	    109.08443971	     46.14908366	      0.00000000	      0.00000000
